<?xml version="1.0" encoding="UTF-8" standalone="no"?>
<!DOCTYPE svg PUBLIC "-//W3C//DTD SVG 1.1//EN" "http://www.w3.org/Graphics/SVG/1.1/DTD/svg11.dtd">
<svg version="1.1" xmlns="http://www.w3.org/2000/svg" xmlns:xlink="http://www.w3.org/1999/xlink" preserveAspectRatio="xMidYMid meet" viewBox="0 0 640 640" width="28" height="28"><defs><path d="M326.54 1.14L330.2 1.3L333.83 1.53L337.44 1.83L341.03 2.18L344.59 2.59L348.12 3.06L351.63 3.59L355.1 4.18L358.55 4.81L361.96 5.51L365.35 6.25L368.69 7.04L372.01 7.89L375.29 8.78L378.53 9.71L381.74 10.7L384.91 11.72L388.04 12.79L391.12 13.9L394.17 15.05L397.18 16.24L400.14 17.47L403.06 18.73L405.93 20.03L408.75 21.36L411.53 22.73L414.26 24.12L416.94 25.55L419.57 27L422.15 28.48L424.23 29.71L426.28 30.96L428.31 32.23L430.31 33.52L432.29 34.83L434.25 36.16L436.19 37.51L438.1 38.88L439.99 40.27L441.86 41.68L443.7 43.11L445.53 44.55L447.33 46.02L449.1 47.5L450.86 49L452.59 50.52L454.31 52.06L456 53.61L457.67 55.19L459.31 56.78L460.94 58.39L462.54 60.01L464.13 61.66L465.69 63.32L467.23 65L468.75 66.69L470.25 68.4L471.73 70.13L473.18 71.87L474.62 73.63L476.04 75.41L477.44 77.2L478.81 79.01L480.17 80.83L481.5 82.67L482.82 84.52L484.12 86.39L485.39 88.27L486.65 90.17L487.89 92.08L489.16 94.1L490.41 96.13L491.64 98.18L492.85 100.25L494.04 102.34L495.2 104.46L496.34 106.59L497.46 108.74L498.56 110.92L499.62 113.11L500.67 115.34L501.69 117.58L502.68 119.85L503.64 122.14L504.58 124.45L505.49 126.79L506.38 129.16L507.23 131.55L508.06 133.97L508.85 136.41L509.62 138.88L510.35 141.38L511.05 143.91L511.73 146.46L512.37 149.05L512.97 151.66L513.55 154.3L514.08 156.98L514.59 159.68L515.06 162.42L515.5 165.18L515.89 167.98L516.26 170.81L516.58 173.68L516.87 176.57L517.12 179.51L517.34 182.47L517.51 185.47L517.64 188.51L517.74 191.58L517.77 193.16L517.78 194.73L517.78 196.3L517.77 197.86L517.75 199.42L517.71 200.96L517.65 202.5L517.59 204.04L517.51 205.57L517.41 207.08L517.31 208.6L517.19 210.1L517.06 211.6L516.92 213.09L516.77 214.57L516.61 216.04L516.43 217.5L516.25 218.96L516.05 220.4L515.84 221.84L515.63 223.27L515.4 224.69L515.17 226.1L514.92 227.49L514.67 228.88L514.4 230.26L514.13 231.63L513.85 232.99L513.56 234.34L513.27 235.68L512.96 237L512.65 238.32L512.33 239.63L512.01 240.92L511.67 242.2L511.34 243.47L510.99 244.73L510.64 245.98L510.28 247.21L509.92 248.43L509.55 249.66L509.16 250.87L508.76 252.08L508.36 253.28L507.94 254.47L507.51 255.65L507.08 256.82L506.64 257.98L506.18 259.14L505.73 260.29L505.26 261.43L504.78 262.57L504.3 263.7L503.81 264.83L503.32 265.95L502.82 267.06L502.31 268.17L501.8 269.28L501.29 270.38L500.77 271.48L500.25 272.57L499.72 273.66L499.19 274.75L498.65 275.84L498.12 276.93L497.58 278.01L497.04 279.09L496.5 280.17L495.96 281.25L495.41 282.34L494.87 283.42L494.33 284.5L493.78 285.58L493.24 286.66L492.7 287.75L492.16 288.83L491.62 289.92L491.09 291.01L490.55 292.11L490.02 293.2L488.99 295.34L487.93 297.48L486.87 299.6L485.79 301.71L484.71 303.82L483.61 305.92L482.5 308.01L481.38 310.09L480.24 312.17L479.1 314.24L477.95 316.3L476.79 318.36L475.62 320.41L474.44 322.45L473.25 324.49L472.05 326.53L470.85 328.55L469.64 330.57L468.42 332.59L467.19 334.6L465.96 336.61L464.72 338.62L463.48 340.62L462.22 342.61L460.97 344.61L459.71 346.59L458.44 348.58L457.17 350.56L455.9 352.54L454.62 354.52L453.34 356.5L452.05 358.47L450.76 360.44L449.47 362.42L448.18 364.38L446.89 366.35L445.59 368.32L444.29 370.29L443 372.25L441.7 374.22L437.84 380.08L433.99 385.95L430.16 391.83L426.35 397.72L422.55 403.63L418.79 409.56L415.04 415.51L411.33 421.48L407.64 427.48L403.99 433.52L400.37 439.58L396.79 445.67L393.25 451.81L389.74 457.98L386.29 464.2L382.87 470.46L379.51 476.77L376.19 483.13L372.93 489.54L369.72 496.01L366.57 502.54L363.48 509.12L360.45 515.77L357.48 522.49L354.58 529.28L351.75 536.13L348.99 543.06L346.3 550.07L343.69 557.16L341.15 564.32L338.69 571.58L336.32 578.92L334.03 586.35L331.82 593.87L329.7 601.48L327.68 609.2L325.75 617.01L323.91 624.93L322.17 632.95L320.53 641.08L319.41 635.71L318.25 630.38L317.04 625.09L315.8 619.85L314.52 614.66L313.2 609.5L311.84 604.38L310.44 599.31L309 594.27L307.53 589.27L306.02 584.32L304.48 579.39L302.89 574.51L301.28 569.66L299.63 564.84L297.94 560.07L296.23 555.32L294.48 550.61L292.69 545.93L290.88 541.28L289.03 536.66L287.16 532.07L285.25 527.51L283.31 522.98L281.35 518.48L279.35 514.01L277.33 509.56L275.28 505.13L273.21 500.74L271.11 496.36L268.98 492.01L266.82 487.69L264.65 483.38L262.44 479.1L260.22 474.84L257.97 470.6L255.7 466.38L253.4 462.17L251.09 457.99L248.75 453.82L247 450.74L245.24 447.67L243.47 444.61L241.68 441.56L239.88 438.52L238.08 435.5L236.26 432.48L234.43 429.47L232.59 426.46L230.74 423.47L228.89 420.48L227.02 417.5L225.15 414.52L223.27 411.55L221.39 408.59L219.5 405.63L217.6 402.68L215.7 399.72L213.8 396.78L211.89 393.83L209.98 390.89L208.06 387.95L206.15 385.01L204.23 382.07L202.31 379.13L200.39 376.19L198.47 373.25L196.55 370.31L194.64 367.37L192.72 364.43L190.81 361.48L188.9 358.53L186.99 355.58L185.09 352.62L183.19 349.66L181.29 346.7L179.4 343.73L177.52 340.75L175.64 337.77L173.77 334.78L173.15 333.78L172.54 332.77L171.92 331.77L171.32 330.76L170.71 329.75L170.11 328.74L169.51 327.72L168.91 326.7L168.32 325.68L167.73 324.66L167.14 323.64L166.55 322.61L165.97 321.59L165.39 320.56L164.81 319.53L164.23 318.5L163.65 317.46L163.08 316.43L162.5 315.39L161.93 314.36L161.35 313.32L160.78 312.28L160.21 311.24L159.63 310.2L159.06 309.16L158.49 308.12L157.91 307.08L157.34 306.04L156.76 305L156.19 303.96L155.61 302.92L155.03 301.88L154.45 300.84L153.87 299.79L153.28 298.75L152.69 297.71L152.11 296.67L151.51 295.64L150.92 294.6L150.32 293.56L149.13 291.48L147.95 289.38L146.79 287.26L145.64 285.13L144.5 282.98L143.38 280.81L142.28 278.61L141.2 276.4L140.13 274.17L139.09 271.92L138.07 269.65L137.07 267.35L136.09 265.03L135.14 262.69L134.21 260.33L133.31 257.94L132.44 255.53L131.59 253.1L130.78 250.64L129.99 248.15L129.24 245.64L128.52 243.1L127.83 240.53L127.18 237.94L126.56 235.31L125.98 232.66L125.44 229.98L124.94 227.27L124.47 224.53L124.05 221.77L123.66 218.96L123.32 216.13L123.03 213.27L122.77 210.37L122.57 207.44L122.41 204.48L122.29 201.49L122.23 198.46L122.22 195.39L122.25 192.29L122.33 189.26L122.45 186.26L122.61 183.28L122.81 180.34L123.05 177.43L123.33 174.55L123.65 171.69L124 168.86L124.39 166.07L124.82 163.3L125.28 160.56L125.77 157.84L126.3 155.16L126.87 152.5L127.47 149.87L128.1 147.27L128.76 144.69L129.46 142.14L130.19 139.62L130.95 137.12L131.73 134.65L132.55 132.21L133.4 129.79L134.28 127.4L135.18 125.03L136.11 122.69L137.07 120.37L138.05 118.08L139.07 115.81L140.1 113.57L141.16 111.35L142.25 109.16L143.36 106.99L144.49 104.84L145.65 102.71L146.82 100.61L148.02 98.54L149.24 96.48L150.48 94.45L151.74 92.44L153.87 89.17L156.06 85.93L158.33 82.72L160.66 79.55L163.07 76.41L165.54 73.32L168.09 70.26L170.7 67.24L173.38 64.27L176.12 61.35L178.94 58.47L181.82 55.64L184.77 52.86L187.79 50.13L190.87 47.45L194.03 44.84L197.24 42.27L200.53 39.77L203.87 37.33L207.29 34.95L210.77 32.64L214.31 30.39L217.92 28.21L221.59 26.1L225.33 24.07L229.13 22.1L233 20.21L236.93 18.4L240.92 16.66L244.97 15.01L249.09 13.44L253.27 11.95L257.51 10.54L261.81 9.23L266.17 8L270.6 6.86L275.08 5.82L279.63 4.86L284.24 4.01L288.9 3.25L292.74 2.71L296.56 2.25L300.37 1.86L304.16 1.54L307.93 1.3L311.69 1.13L315.43 1.03L319.15 1L322.86 1.04L326.54 1.14ZM314.32 122.76L311.52 123.05L308.76 123.44L306.04 123.94L303.35 124.55L300.7 125.26L298.1 126.07L295.54 126.98L293.03 127.98L290.57 129.08L288.16 130.27L285.8 131.55L283.5 132.92L281.26 134.37L279.08 135.9L276.96 137.52L274.9 139.22L272.92 140.99L271 142.83L269.16 144.75L267.39 146.73L265.69 148.79L264.08 150.9L262.54 153.09L261.09 155.33L259.72 157.63L258.44 159.98L257.25 162.39L256.15 164.86L255.15 167.37L254.24 169.93L253.43 172.53L252.72 175.18L252.11 177.86L251.61 180.59L251.22 183.35L250.94 186.15L250.76 188.97L250.71 191.83L250.76 194.69L250.94 197.51L251.22 200.31L251.61 203.07L252.11 205.79L252.72 208.48L253.43 211.13L254.24 213.73L255.15 216.29L256.15 218.8L257.25 221.26L258.44 223.67L259.72 226.03L261.09 228.33L262.54 230.57L264.08 232.75L265.69 234.87L267.39 236.93L269.16 238.91L271 240.83L272.92 242.67L274.9 244.44L276.96 246.14L279.08 247.75L281.26 249.29L283.5 250.74L285.8 252.11L288.16 253.39L290.57 254.58L293.03 255.68L295.54 256.68L298.1 257.59L300.7 258.4L303.35 259.11L306.04 259.72L308.76 260.22L311.52 260.61L314.32 260.89L317.14 261.07L320 261.12L322.86 261.07L325.68 260.89L328.48 260.61L331.24 260.22L333.97 259.72L336.65 259.11L339.3 258.4L341.9 257.59L344.46 256.68L346.97 255.68L349.43 254.58L351.85 253.39L354.2 252.11L356.5 250.74L358.74 249.29L360.92 247.75L363.04 246.14L365.1 244.44L367.08 242.67L369 240.83L370.84 238.91L372.61 236.93L374.31 234.87L375.93 232.75L377.46 230.57L378.91 228.33L380.28 226.03L381.56 223.67L382.75 221.26L383.85 218.8L384.85 216.29L385.76 213.73L386.57 211.13L387.28 208.48L387.89 205.79L388.39 203.07L388.78 200.31L389.07 197.51L389.24 194.69L389.29 191.83L389.24 188.97L389.07 186.15L388.78 183.35L388.39 180.59L387.89 177.86L387.28 175.18L386.57 172.53L385.76 169.93L384.85 167.37L383.85 164.86L382.75 162.39L381.56 159.98L380.28 157.63L378.91 155.33L377.46 153.09L375.93 150.9L374.31 148.79L372.61 146.73L370.84 144.75L369 142.83L367.08 140.99L365.1 139.22L363.04 137.52L360.92 135.9L358.74 134.37L356.5 132.92L354.2 131.55L351.85 130.27L349.43 129.08L346.97 127.98L344.46 126.98L341.9 126.07L339.3 125.26L336.65 124.55L333.97 123.94L331.24 123.44L328.48 123.05L325.68 122.76L322.86 122.59L320 122.53L317.14 122.59L314.32 122.76Z" id="a1eFMJr0eZ"></path></defs><g><g><g><use xlink:href="#a1eFMJr0eZ" opacity="1" fill="#02ae14" fill-opacity="1"></use><g><use xlink:href="#a1eFMJr0eZ" opacity="1" fill-opacity="0" stroke="#000000" stroke-width="37" stroke-opacity="0"></use></g></g></g></g></svg>