<?xml version="1.0" encoding="UTF-8" standalone="no"?>
<!DOCTYPE svg PUBLIC "-//W3C//DTD SVG 1.1//EN" "http://www.w3.org/Graphics/SVG/1.1/DTD/svg11.dtd">
<svg version="1.1" xmlns="http://www.w3.org/2000/svg" xmlns:xlink="http://www.w3.org/1999/xlink" preserveAspectRatio="xMidYMid meet" viewBox="96.16381418092897 11.787286063569582 424.5380440097804 611.7139364303182" width="17.99" height="26"><defs><path d="M324.68 13.5L333.16 14.37L341.54 15.59L349.81 17.13L357.96 19L365.99 21.19L373.89 23.69L381.66 26.49L389.28 29.59L396.75 32.98L404.06 36.65L411.21 40.6L418.19 44.82L425 49.31L431.61 54.04L438.04 59.03L444.27 64.26L450.3 69.72L456.12 75.42L461.71 81.33L467.09 87.46L472.23 93.79L477.13 100.33L481.79 107.06L486.2 113.98L490.35 121.08L494.23 128.35L497.84 135.79L501.18 143.38L504.23 151.13L506.98 159.03L509.44 167.06L511.59 175.23L513.43 183.52L514.95 191.93L516.14 200.45L517 209.08L517.53 217.8L517.7 226.61L517.53 235.43L517 244.17L516.14 252.85L514.95 261.48L513.43 270.06L511.59 278.6L509.44 287.13L506.98 295.64L504.23 304.14L501.18 312.66L497.84 321.18L494.23 329.74L490.35 338.33L486.2 346.97L481.79 355.66L477.13 364.42L472.23 373.25L467.09 382.18L461.71 391.19L456.12 400.32L450.3 409.56L444.27 418.92L438.04 428.43L431.61 438.08L425 447.88L418.19 457.85L411.21 468L404.06 478.33L396.75 488.86L389.28 499.6L381.66 510.55L373.89 521.73L365.99 533.14L357.96 544.8L349.81 556.72L341.54 568.91L333.16 581.37L324.68 594.11L316.1 607.15L307.43 620.5L298.77 607.15L290.19 594.11L281.71 581.37L273.33 568.91L265.06 556.72L256.9 544.8L248.87 533.14L240.97 521.73L233.21 510.55L225.59 499.6L218.12 488.86L210.8 478.33L203.65 468L196.67 457.85L189.87 447.88L183.25 438.08L176.82 428.43L170.59 418.92L164.57 409.56L158.75 400.32L153.15 391.19L147.78 382.18L142.64 373.25L137.73 364.42L133.07 355.66L128.67 346.97L124.52 338.33L120.63 329.74L117.02 321.18L113.69 312.66L110.64 304.14L107.88 295.64L105.43 287.13L103.27 278.6L101.44 270.06L99.92 261.48L98.72 252.85L97.86 244.17L97.34 235.43L97.16 226.61L97.34 217.8L97.86 209.08L98.72 200.45L99.92 191.93L101.44 183.52L103.27 175.23L105.43 167.06L107.88 159.03L110.64 151.13L113.69 143.38L117.02 135.79L120.63 128.35L124.52 121.08L128.67 113.98L133.07 107.06L137.73 100.33L142.64 93.79L147.78 87.46L153.15 81.33L158.75 75.42L164.57 69.72L170.59 64.26L176.82 59.03L183.25 54.04L189.87 49.31L196.67 44.82L203.65 40.6L210.8 36.65L218.12 32.98L225.59 29.59L233.21 26.49L240.97 23.69L248.87 21.19L256.9 19L265.06 17.13L273.33 15.59L281.71 14.37L290.19 13.5L298.77 12.97L307.43 12.79L316.1 12.97L324.68 13.5ZM299.26 114.41L295.25 114.82L291.28 115.4L287.36 116.13L283.5 117.02L279.69 118.05L275.95 119.24L272.27 120.56L268.66 122.03L265.12 123.64L261.66 125.38L258.27 127.25L254.97 129.25L251.74 131.37L248.61 133.62L245.56 135.98L242.61 138.45L239.76 141.04L237 143.74L234.35 146.54L231.81 149.44L229.37 152.44L227.05 155.54L224.84 158.73L222.75 162.01L220.79 165.37L218.95 168.81L217.24 172.34L215.66 175.93L214.21 179.6L212.91 183.34L211.75 187.15L210.73 191.02L209.86 194.95L209.14 198.93L208.57 202.97L208.16 207.05L207.91 211.18L207.83 215.36L207.91 219.53L208.16 223.67L208.57 227.75L209.14 231.79L209.86 235.77L210.73 239.7L211.75 243.57L212.91 247.37L214.21 251.11L215.66 254.78L217.24 258.38L218.95 261.91L220.79 265.35L222.75 268.71L224.84 271.99L227.05 275.18L229.37 278.27L231.81 281.27L234.35 284.18L237 286.98L239.76 289.67L242.61 292.26L245.56 294.74L248.61 297.1L251.74 299.35L254.97 301.47L258.27 303.47L261.66 305.34L265.12 307.08L268.66 308.68L272.27 310.15L275.95 311.48L279.69 312.66L283.5 313.7L287.36 314.59L291.28 315.32L295.25 315.89L299.26 316.31L303.33 316.56L307.43 316.64L311.54 316.56L315.6 316.31L319.62 315.89L323.59 315.32L327.51 314.59L331.37 313.7L335.17 312.66L338.91 311.48L342.59 310.15L346.2 308.68L349.74 307.08L353.21 305.34L356.59 303.47L359.9 301.47L363.12 299.35L366.26 297.1L369.3 294.74L372.25 292.26L375.11 289.67L377.86 286.98L380.51 284.18L383.06 281.27L385.49 278.27L387.82 275.18L390.02 271.99L392.11 268.71L394.08 265.35L395.92 261.91L397.63 258.38L399.21 254.78L400.65 251.11L401.96 247.37L403.12 243.57L404.14 239.7L405.01 235.77L405.73 231.79L406.3 227.75L406.7 223.67L406.95 219.53L407.03 215.36L406.95 211.18L406.7 207.05L406.3 202.97L405.73 198.93L405.01 194.95L404.14 191.02L403.12 187.15L401.96 183.34L400.65 179.6L399.21 175.93L397.63 172.34L395.92 168.81L394.08 165.37L392.11 162.01L390.02 158.73L387.82 155.54L385.49 152.44L383.06 149.44L380.51 146.54L377.86 143.74L375.11 141.04L372.25 138.45L369.3 135.98L366.26 133.62L363.12 131.37L359.9 129.25L356.59 127.25L353.21 125.38L349.74 123.64L346.2 122.03L342.59 120.56L338.91 119.24L335.17 118.05L331.37 117.02L327.51 116.13L323.59 115.4L319.62 114.82L315.6 114.41L311.54 114.16L307.43 114.07L303.33 114.16L299.26 114.41Z" id="d4Xdcdbaw2"></path></defs><g><g><use xlink:href="#d4Xdcdbaw2" opacity="1" fill="#d31b1b" fill-opacity="1"></use></g></g></svg>